<svg xmlns="http://www.w3.org/2000/svg" width="50" height="50" viewBox="0 0 50 50" fill="none">
<path fill-rule="evenodd" clip-rule="evenodd" d="M25 2.60413C25.8629 2.60413 26.5625 3.30369 26.5625 4.16663V8.33329C26.5625 9.19623 25.8629 9.89579 25 9.89579C24.1371 9.89579 23.4375 9.19623 23.4375 8.33329V4.16663C23.4375 3.30369 24.1371 2.60413 25 2.60413ZM11.3952 11.3951C12.0054 10.7849 12.9947 10.7849 13.6049 11.3951L14.32 12.1102C14.9302 12.7204 14.9302 13.7098 14.32 14.3199C13.7098 14.9301 12.7205 14.9301 12.1103 14.3199L11.3952 13.6048C10.785 12.9946 10.785 12.0053 11.3952 11.3951ZM38.6048 11.3951C39.215 12.0053 39.215 12.9946 38.6048 13.6048L37.8898 14.3199C37.2796 14.9301 36.2902 14.9301 35.68 14.3199C35.0698 13.7098 35.0698 12.7204 35.68 12.1102L36.3952 11.3951C37.0054 10.7849 37.9946 10.7849 38.6048 11.3951ZM2.60419 25C2.60419 24.137 3.30375 23.4375 4.16669 23.4375H8.33335C9.19629 23.4375 9.89585 24.137 9.89585 25C9.89585 25.8629 9.19629 26.5625 8.33335 26.5625H4.16669C3.30375 26.5625 2.60419 25.8629 2.60419 25ZM40.1042 25C40.1042 24.137 40.8038 23.4375 41.6667 23.4375H45.8334C46.6963 23.4375 47.3959 24.137 47.3959 25C47.3959 25.8629 46.6963 26.5625 45.8334 26.5625H41.6667C40.8038 26.5625 40.1042 25.8629 40.1042 25ZM14.3196 35.6804C14.9297 36.2906 14.9297 37.28 14.3196 37.8902L13.6049 38.6048C12.9947 39.215 12.0054 39.215 11.3952 38.6048C10.785 37.9945 10.785 37.0054 11.3952 36.3952L12.1099 35.6804C12.72 35.0702 13.7094 35.0702 14.3196 35.6804ZM35.6804 35.6804C36.2906 35.0702 37.28 35.0702 37.8902 35.6804L38.6048 36.3952C39.215 37.0054 39.215 37.9945 38.6048 38.6048C37.9946 39.215 37.0054 39.215 36.3952 38.6048L35.6804 37.8902C35.0702 37.28 35.0702 36.2906 35.6804 35.6804ZM25 40.1041C25.8629 40.1041 26.5625 40.8037 26.5625 41.6666V45.8333C26.5625 46.6962 25.8629 47.3958 25 47.3958C24.1371 47.3958 23.4375 46.6962 23.4375 45.8333V41.6666C23.4375 40.8037 24.1371 40.1041 25 40.1041Z" fill="#2b89d6"/>
<path d="M14.5833 23.0406C14.5833 28.337 18.7702 31.1595 21.8352 33.6858C22.9166 34.5773 23.9583 35.4166 25 35.4166C26.0416 35.4166 27.0833 34.5773 28.1648 33.6858C31.2298 31.1595 35.4166 28.337 35.4166 23.0406C35.4166 17.7441 29.6873 13.9879 25 19.0799C20.3126 13.9879 14.5833 17.7441 14.5833 23.0406Z" fill="#2b89d6"/>
</svg>
